<svg width="14" height="22" viewBox="0 0 14 22" fill="none" xmlns="http://www.w3.org/2000/svg">
<path d="M13 19.3332C13 20.25 12.2287 21 11.2856 21H2.71491C1.77182 21 1 20.25 1 19.3332V2.66684C1 1.75 1.77182 1 2.71491 1H11.2862C12.2287 1 13 1.75 13 2.66684V19.3332Z" stroke="white" stroke-width="2" stroke-miterlimit="10" stroke-linecap="round" stroke-linejoin="round"/>
<path d="M5.63637 5H8.9091" stroke="white" stroke-width="2" stroke-miterlimit="10" stroke-linecap="round" stroke-linejoin="round"/>
<path d="M7 18.0909C7.30124 18.0909 7.54545 17.8467 7.54545 17.5455C7.54545 17.2442 7.30124 17 7 17C6.69875 17 6.45454 17.2442 6.45454 17.5455C6.45454 17.8467 6.69875 18.0909 7 18.0909Z" stroke="white" stroke-width="2" stroke-miterlimit="10" stroke-linecap="round" stroke-linejoin="round"/>
</svg>
